<svg width="41" height="40" viewBox="0 0 41 40" fill="none" xmlns="http://www.w3.org/2000/svg">
<rect x="0.5" width="40" height="40" rx="20" fill="#647AC7"/>
<path fill-rule="evenodd" clip-rule="evenodd" d="M22.6138 13.7846C22.7361 13.7334 22.8674 13.707 23 13.707C23.1326 13.707 23.2639 13.7334 23.3862 13.7846C23.5078 13.8355 23.6182 13.91 23.7109 14.0037L26.4962 16.7891C26.5899 16.8818 26.6644 16.9921 26.7153 17.1137C26.7665 17.236 26.7929 17.3673 26.7929 17.4999C26.7929 17.6326 26.7665 17.7638 26.7153 17.8862C26.6644 18.0078 26.59 18.1181 26.4963 18.2108L18.8536 25.8535C18.7598 25.9473 18.6326 25.9999 18.5 25.9999H15.5C15.2348 25.9999 14.9804 25.8946 14.7929 25.7071C14.6054 25.5195 14.5 25.2652 14.5 24.9999V22.2069M22.6138 13.7846C22.4922 13.8355 22.3818 13.91 22.2891 14.0038ZM15.5 22.2071V24.9999H18.2929L25.7929 17.4999L25.7902 17.4973L23 14.707L22.9973 14.7098L15.5 22.2071Z" fill="#EDECEE"/>
<path fill-rule="evenodd" clip-rule="evenodd" d="M18 25.5C18 25.2239 18.2239 25 18.5 25H26C26.2761 25 26.5 25.2239 26.5 25.5C26.5 25.7761 26.2761 26 26 26H18.5C18.2239 26 18 25.7761 18 25.5Z" fill="#EDECEE"/>
<path fill-rule="evenodd" clip-rule="evenodd" d="M20.6464 15.6464C20.8417 15.4512 21.1583 15.4512 21.3536 15.6464L24.8536 19.1464C25.0488 19.3417 25.0488 19.6583 24.8536 19.8536C24.6583 20.0488 24.3417 20.0488 24.1464 19.8536L20.6464 16.3536C20.4512 16.1583 20.4512 15.8417 20.6464 15.6464Z" fill="#EDECEE"/>
</svg>
